<svg width="24" height="23" viewBox="0 0 24 23" fill="none" xmlns="http://www.w3.org/2000/svg">
<path fill-rule="evenodd" clip-rule="evenodd" d="M18.7071 6.4276C19.0976 6.05335 19.0976 5.44657 18.7071 5.07232C18.3166 4.69806 17.6834 4.69806 17.2929 5.07232L12 10.1447L6.70711 5.07232C6.31658 4.69806 5.68342 4.69806 5.29289 5.07232C4.90237 5.44657 4.90237 6.05335 5.29289 6.4276L10.5858 11.5L5.29289 16.5723C4.90237 16.9466 4.90237 17.5534 5.29289 17.9276C5.68342 18.3019 6.31658 18.3019 6.70711 17.9276L12 12.8552L17.2929 17.9276C17.6834 18.3019 18.3166 18.3019 18.7071 17.9276C19.0976 17.5534 19.0976 16.9466 18.7071 16.5723L13.4142 11.5L18.7071 6.4276ZM13.4142 11.5L12 10.1447L10.5858 11.5L12 12.8552L13.4142 11.5Z" fill="#476CFE"/>
<path d="M13.4142 11.5L12 10.1447L10.5858 11.5L12 12.8552L13.4142 11.5Z" fill="#476CFE"/>
</svg>
